<svg width="1920" height="940" viewBox="0 0 1920 940" fill="none" xmlns="http://www.w3.org/2000/svg">
<mask id="mask0_155_834" style="mask-type:alpha" maskUnits="userSpaceOnUse" x="0" y="0" width="1920" height="940">
<rect width="1920" height="940" fill="#EDFDEC"/>
</mask>
<g mask="url(#mask0_155_834)">
<circle cx="1169.5" cy="632.5" r="375.5" fill="#FF7245"/>
<path d="M799.018 547.923C723.482 297.303 951.05 236.628 1074.28 237.617C1304.87 245.579 1206.67 366.231 1392.49 455.664C1578.31 545.097 1386.57 573.763 1348.48 689.055C1310.39 804.347 1576.03 757.856 1500.86 968.159C1425.7 1178.46 1015.55 1171.08 1183.3 904.417C1351.05 637.759 893.437 861.197 799.018 547.923Z" stroke="#F4F4F4" stroke-width="2"/>
<path d="M879.835 577.306C821.745 384.241 996.801 337.486 1091.59 338.241C1268.97 344.361 1193.42 437.314 1336.36 506.199C1479.29 575.085 1331.8 597.179 1302.49 685.998C1273.19 774.818 1477.52 738.987 1419.7 901.003C1361.87 1063.02 1046.37 1057.35 1175.42 851.916C1304.47 646.482 952.448 818.637 879.835 577.306Z" stroke="#F4F4F4" stroke-width="2"/>
<path d="M724.199 520.476C632.537 216.025 908.734 142.302 1058.29 143.497C1338.15 153.156 1218.96 299.731 1444.48 408.365C1670 516.999 1437.3 551.833 1391.06 691.893C1344.83 831.953 1667.23 775.46 1575.99 1030.94C1484.75 1286.43 986.968 1277.48 1190.58 953.528C1394.18 629.579 838.775 901.04 724.199 520.476Z" stroke="#F4F4F4" stroke-width="2"/>
<path d="M661.336 497.715C556.096 148.701 873.132 64.2111 1044.8 65.5927C1366.06 76.6866 1229.25 244.704 1488.13 369.253C1747.01 493.802 1479.89 533.716 1426.83 694.27C1373.77 854.823 1743.84 790.088 1639.13 1082.95C1534.42 1375.82 963.023 1365.52 1196.72 994.178C1430.41 622.836 792.886 933.981 661.336 497.715Z" stroke="#F4F4F4" stroke-width="2"/>
<path d="M571.561 464.614C446.988 50.638 822.385 -49.6149 1025.65 -47.9944C1406.03 -34.8692 1244.03 164.441 1550.54 312.149C1857.06 459.858 1540.77 507.232 1477.93 697.68C1415.08 888.128 1853.27 811.302 1729.26 1158.7C1605.25 1506.1 928.683 1493.94 1205.43 1053.44C1482.17 612.947 727.277 982.084 571.561 464.614Z" stroke="#F4F4F4" stroke-width="2"/>
<path d="M466.83 425.864C319.717 -64.2064 763.206 -182.938 1003.34 -181.045C1452.7 -165.554 1261.29 70.4195 1623.37 245.246C1985.46 420.072 1611.81 476.195 1537.54 701.665C1463.28 927.135 1980.94 836.13 1834.4 1247.41C1687.85 1658.69 888.588 1644.39 1215.58 1122.87C1542.57 601.354 650.721 1038.45 466.83 425.864Z" stroke="#F4F4F4" stroke-width="2"/>
<circle cx="3" cy="3" r="3" transform="matrix(4.37114e-08 1 1 -4.37114e-08 770 495)" fill="#4B4692"/>
<circle cx="3" cy="3" r="3" transform="matrix(4.37114e-08 1 1 -4.37114e-08 770 480)" fill="#4B4692"/>
<circle cx="3" cy="3" r="3" transform="matrix(4.37114e-08 1 1 -4.37114e-08 770 465)" fill="#4B4692"/>
<circle cx="3" cy="3" r="3" transform="matrix(4.37114e-08 1 1 -4.37114e-08 789 495)" fill="#4B4692"/>
<circle cx="3" cy="3" r="3" transform="matrix(4.37114e-08 1 1 -4.37114e-08 789 480)" fill="#4B4692"/>
<circle cx="3" cy="3" r="3" transform="matrix(4.37114e-08 1 1 -4.37114e-08 789 465)" fill="#4B4692"/>
<circle cx="3" cy="3" r="3" transform="matrix(4.37114e-08 1 1 -4.37114e-08 808 495)" fill="#4B4692"/>
<circle cx="3" cy="3" r="3" transform="matrix(4.37114e-08 1 1 -4.37114e-08 808 480)" fill="#4B4692"/>
<circle cx="3" cy="3" r="3" transform="matrix(4.37114e-08 1 1 -4.37114e-08 808 465)" fill="#4B4692"/>
<circle cx="3" cy="3" r="3" transform="matrix(4.37114e-08 1 1 -4.37114e-08 827 495)" fill="#4B4692"/>
<circle cx="3" cy="3" r="3" transform="matrix(4.37114e-08 1 1 -4.37114e-08 827 480)" fill="#4B4692"/>
<circle cx="3" cy="3" r="3" transform="matrix(4.37114e-08 1 1 -4.37114e-08 827 465)" fill="#4B4692"/>
</g>
</svg>
