<svg width="1920" height="997" viewBox="0 0 1920 997" fill="none" xmlns="http://www.w3.org/2000/svg">
<mask id="mask0_10_728" style="mask-type:alpha" maskUnits="userSpaceOnUse" x="0" y="0" width="1920" height="997">
<rect width="1920" height="997" fill="#FF754C"/>
</mask>
<g mask="url(#mask0_10_728)">
<circle cx="1232" cy="-35" r="165" fill="#F5F5F5"/>
<circle cx="190" cy="501" r="108" fill="#F5F5F5"/>
<circle cx="782.778" cy="103.222" r="2.22222" transform="rotate(90 782.778 103.222)" fill="#CBCBCB"/>
<circle cx="782.778" cy="115.074" r="2.22222" transform="rotate(90 782.778 115.074)" fill="#CBCBCB"/>
<circle cx="782.778" cy="126.926" r="2.22222" transform="rotate(90 782.778 126.926)" fill="#CBCBCB"/>
<circle cx="770.926" cy="103.222" r="2.22222" transform="rotate(90 770.926 103.222)" fill="#CBCBCB"/>
<circle cx="770.926" cy="115.074" r="2.22222" transform="rotate(90 770.926 115.074)" fill="#CBCBCB"/>
<circle cx="770.926" cy="126.926" r="2.22222" transform="rotate(90 770.926 126.926)" fill="#CBCBCB"/>
<circle cx="759.074" cy="103.222" r="2.22222" transform="rotate(90 759.074 103.222)" fill="#CBCBCB"/>
<circle cx="759.074" cy="115.074" r="2.22222" transform="rotate(90 759.074 115.074)" fill="#CBCBCB"/>
<circle cx="759.074" cy="126.926" r="2.22222" transform="rotate(90 759.074 126.926)" fill="#CBCBCB"/>
<circle cx="747.222" cy="103.222" r="2.22222" transform="rotate(90 747.222 103.222)" fill="#CBCBCB"/>
<circle cx="736.222" cy="103.222" r="2.22222" transform="rotate(90 736.222 103.222)" fill="#CBCBCB"/>
<circle cx="725.222" cy="103.222" r="2.22222" transform="rotate(90 725.222 103.222)" fill="#CBCBCB"/>
<circle cx="747.222" cy="115.074" r="2.22222" transform="rotate(90 747.222 115.074)" fill="#CBCBCB"/>
<circle cx="736.222" cy="115.074" r="2.22222" transform="rotate(90 736.222 115.074)" fill="#CBCBCB"/>
<circle cx="725.222" cy="115.074" r="2.22222" transform="rotate(90 725.222 115.074)" fill="#CBCBCB"/>
<circle cx="747.222" cy="126.926" r="2.22222" transform="rotate(90 747.222 126.926)" fill="#CBCBCB"/>
<circle cx="736.222" cy="126.926" r="2.22222" transform="rotate(90 736.222 126.926)" fill="#CBCBCB"/>
<circle cx="725.222" cy="126.926" r="2.22222" transform="rotate(90 725.222 126.926)" fill="#CBCBCB"/>
</g>
</svg>
