<svg width="81" height="69" viewBox="0 0 81 69" fill="none" xmlns="http://www.w3.org/2000/svg">
<path fill-rule="evenodd" clip-rule="evenodd" d="M52.8139 0.194932C52.2863 0.43935 51.7133 1.12377 51.2647 2.04578C50.1602 4.31529 50.4643 7.39451 52.1095 10.6032C53.0671 12.4709 55.4598 16.0496 55.4672 15.6252C55.4678 15.5845 55.6201 15.7878 55.8056 16.0769C55.9911 16.3661 56.1664 16.5786 56.1953 16.5492C56.2241 16.5197 55.9943 15.9615 55.6846 15.3084C55.068 14.0086 54.7064 13.0898 54.6822 12.7618C54.6734 12.6435 54.6081 12.5733 54.5337 12.6023C54.1594 12.7488 53.0797 9.96003 52.4814 7.30123C52.194 6.02435 52.1983 3.30297 52.4886 2.68125C52.6017 2.43925 52.6866 2.20407 52.6774 2.15875C52.6683 2.11343 52.7123 2.07625 52.7751 2.07625C52.8379 2.07625 52.8665 2.03863 52.8386 1.99254C52.7809 1.89728 53.0651 1.46179 53.1371 1.53516C53.1629 1.56156 53.4515 2.54793 53.7784 3.72712C54.7901 7.37691 55.2204 8.58624 57.7277 14.8249C59.6164 19.5242 60.3266 22.4479 60.3164 25.4824C60.3141 26.1912 60.2407 27.1424 60.1533 27.5961C60.0658 28.0499 59.9868 28.4748 59.9778 28.5403C59.9686 28.6058 59.9085 28.6594 59.8442 28.6593C59.7698 28.6591 59.7139 28.2252 59.6902 27.4642C59.635 25.6896 59.4835 25.4045 59.4847 27.0776C59.4854 27.8511 59.4608 28.5096 59.4302 28.5407C59.3996 28.5719 59.3684 27.9773 59.361 27.2194C59.3458 25.6863 58.9996 23.608 58.6174 22.7562C58.4953 22.4839 58.2284 21.8854 58.0245 21.4262C57.5131 20.2753 55.8386 17.5001 54.6154 15.7766C54.4029 15.4771 54.2281 15.1553 54.227 15.0616C54.226 14.9679 54.1663 14.903 54.0942 14.9174C54.0221 14.9318 53.9872 14.8799 54.0164 14.8021C54.0458 14.7243 53.9479 14.544 53.7991 14.4015L53.5284 14.1422L53.6593 14.4248C53.7313 14.5802 53.8322 14.6809 53.8835 14.6485C53.935 14.6162 53.9214 14.6956 53.8534 14.8252C53.7853 14.9548 53.7656 15.1216 53.8094 15.196C53.8532 15.2705 53.798 15.2571 53.6863 15.1662C53.5047 15.0185 53.4901 15.0193 53.5473 15.1753C53.5866 15.2825 53.5529 15.3496 53.4597 15.3496C53.2736 15.3496 53.2731 15.2775 53.4571 15.0305C53.5352 14.9255 53.6308 14.8718 53.6695 14.9112C53.7081 14.9506 53.7397 14.9311 53.7397 14.868C53.7397 14.8048 53.6658 14.6906 53.5754 14.6141C53.438 14.4978 53.4222 14.5047 53.479 14.6557C53.5549 14.8573 53.4197 14.8944 53.2218 14.7262C53.1277 14.6462 53.1218 14.6522 53.2003 14.7482C53.3412 14.9206 53.34 15.1992 53.1988 15.1103C53.1387 15.0724 53.1751 15.2133 53.2797 15.4233C53.387 15.6388 53.4852 15.7379 53.5048 15.6507C53.524 15.5657 53.5848 15.4962 53.6397 15.4962C53.7655 15.4962 53.7658 15.5709 53.6412 15.8083C53.4978 16.0814 54.0745 16.8661 54.2776 16.6745C54.3909 16.5676 54.4055 16.5798 54.3513 16.7364C54.2947 16.9002 54.6718 17.875 55.1588 18.8237C55.2132 18.9296 55.2357 19.0162 55.2088 19.0162C55.1819 19.0162 54.9496 18.6425 54.6925 18.1858C54.4356 17.729 53.9677 16.9274 53.6528 16.4043C53.3381 15.8813 52.8782 15.0621 52.6309 14.584C52.3837 14.1058 51.9431 13.437 51.6519 13.0977C51.3607 12.7583 51.1773 12.4621 51.2443 12.4393C51.3114 12.4165 51.3662 12.3472 51.3662 12.2853C51.3662 12.2234 51.2818 12.2057 51.1787 12.246C51.0216 12.3075 51.026 12.2846 51.2057 12.1056C51.3236 11.988 51.4518 11.8984 51.4903 11.9065C51.5289 11.9146 51.5604 11.8717 51.5604 11.8112C51.5604 11.7507 51.5184 11.713 51.4672 11.7274C51.4159 11.7418 51.4017 11.6799 51.4356 11.5899C51.4694 11.4999 51.4474 11.4262 51.3867 11.4262C51.326 11.4262 51.2541 11.4881 51.227 11.5637C51.1999 11.6394 51.1838 11.5687 51.1911 11.4066C51.2029 11.1453 51.2237 11.1299 51.3749 11.2694C51.4688 11.3559 51.5806 11.391 51.6234 11.3473C51.6662 11.3037 51.6724 11.3448 51.637 11.4388C51.596 11.5477 51.633 11.6096 51.7392 11.6096C51.877 11.6096 51.8658 11.5417 51.6735 11.2153C51.5457 10.9986 51.1757 10.351 50.851 9.77622C49.243 6.92921 48.8703 6.47623 48.135 6.47623C47.4234 6.47623 47.0524 7.2327 47.0514 8.68612C47.0495 11.2942 48.679 14.2105 52.2322 17.9583C53.5692 19.3686 54.2147 20.1122 53.9684 19.9584C53.87 19.8971 53.8344 19.9108 53.8632 19.9991C53.8873 20.0726 53.9346 20.1166 53.9685 20.0969C54.1011 20.02 54.3707 20.3615 54.3084 20.5272C54.2678 20.6348 54.2865 20.6745 54.3567 20.6303C54.4195 20.5907 54.5995 20.7303 54.7567 20.9404C54.9364 21.1805 54.9809 21.2983 54.8766 21.2575C54.7853 21.2219 54.7107 21.1579 54.7107 21.1154C54.7107 21.0729 54.6377 20.9422 54.5486 20.8247C54.4134 20.6467 54.3975 20.6432 54.4523 20.8037C54.5321 21.0376 54.3278 21.0641 54.2401 20.8312C54.206 20.7404 54.1037 20.6662 54.0128 20.6662C53.9219 20.6662 53.8584 20.6291 53.8716 20.5837C53.8848 20.5382 53.7512 20.3478 53.575 20.1605C53.3986 19.9732 52.9144 19.4327 52.499 18.9595C51.3715 17.6748 47.2014 13.6735 46.474 13.1783C45.7438 12.6811 45.4523 12.6448 45.047 13.0002C44.3984 13.5691 44.6759 15.1263 45.7109 16.7255C46.514 17.9662 48.3636 19.7752 50.5366 21.4447C51.5933 22.2568 52.8867 23.2514 53.4109 23.655C54.3886 24.4079 54.8545 24.8832 54.1074 24.3656C53.8776 24.2064 53.6375 24.0762 53.5739 24.0762C53.5102 24.0762 52.9509 23.7223 52.3312 23.2897C50.3988 21.941 50.0513 21.716 48.8309 21.0231C47.393 20.2068 46.0902 19.66 45.4211 19.5918C45.0043 19.5493 44.887 19.582 44.6929 19.7944C44.436 20.0755 44.3971 20.4465 44.5861 20.8109C45.027 21.6607 46.3425 22.8074 47.9678 23.759C48.4425 24.0369 49.3649 24.5766 50.0176 24.9585C51.1519 25.622 52.7687 26.6811 52.7687 26.7605C52.7687 26.7813 52.2711 26.5431 51.6629 26.2315C49.5065 25.1263 48.0107 24.594 47.2102 24.6471C46.1096 24.72 46.3705 25.2997 48.103 26.6296C48.8249 27.1839 49.4419 27.552 50.0716 27.8044C50.9286 28.1479 52.9072 29.1424 52.8489 29.2004C52.8344 29.2148 52.4694 29.1056 52.0377 28.9577C51.3104 28.7087 50.1558 28.5736 50.0116 28.7207C49.9774 28.7555 50.1725 29.0242 50.4452 29.3176C51.4853 30.437 52.2337 31.8536 52.6027 33.4016C52.738 33.9697 52.829 34.1727 52.9159 34.1006C53.5443 33.5798 56.1345 32.9292 57.7315 32.8912C58.9554 32.862 59.0766 32.7931 59.8076 31.7097C60.4293 30.7884 60.9203 29.5433 61.213 28.1461C61.5135 26.7113 61.5071 24.1 61.1984 22.3162C60.7896 19.9534 59.9295 17.2737 58.2684 13.1862C56.3899 8.56413 55.6543 6.39659 54.7593 2.84625C54.1911 0.59225 54.0521 0.238272 53.6793 0.0937322C53.3235 -0.0442071 53.3327 -0.0453073 52.8139 0.194932ZM7.41816 2.74351C6.76814 3.26469 6.55679 5.69953 7.01401 7.39693C7.98747 11.0106 10.7667 13.7683 16.1414 16.4536C17.0315 16.8984 17.614 17.2296 17.436 17.1897C17.0157 17.0956 14.1289 16.282 12.4705 15.7902C10.7348 15.2755 9.51686 15.0952 8.94841 15.2688C7.47318 15.7195 8.61861 18.0745 11.1415 19.7775C12.225 20.5089 14.0748 21.3886 15.6559 21.9246C16.8603 22.3329 18.0788 22.643 21.212 23.3386C21.3307 23.3649 19.85 23.3807 17.9215 23.3738C14.8526 23.3627 14.3384 23.3854 13.7999 23.5552C13.4462 23.6668 13.1137 23.8525 13.0178 23.9922C12.6885 24.4715 12.8568 25.1286 13.4409 25.6447C14.0293 26.1646 16.0904 26.9802 17.6518 27.3111C19.37 27.6753 22.705 28.0307 24.5447 28.0458C25.0938 28.0503 25.5995 28.0896 25.6687 28.1332C25.7378 28.1767 24.9818 28.3257 23.9887 28.464C20.6832 28.9249 19.3508 29.2797 19.1755 29.7454C18.7029 31.0011 20.1545 31.7371 23.6395 32.0091C24.9818 32.1139 26.8405 32.0602 29.8969 31.8284L30.5981 31.7752L30.0587 31.9479C25.7389 33.3311 25.6183 33.3765 25.1769 33.7881C24.6363 34.292 25.057 35.0515 26.0417 35.3496C27.7876 35.8782 30.3345 35.8084 34.2663 35.124C36.4918 34.7366 37.5006 34.5888 37.2871 34.6815C37.2277 34.7073 36.8273 34.8354 36.397 34.9663C35.5623 35.2204 35.394 35.3254 35.9655 35.2354C36.2967 35.1832 36.3012 35.1869 36.0464 35.3006C35.898 35.3668 35.631 35.393 35.453 35.3587C35.2183 35.3136 35.1739 35.3261 35.2912 35.4046C35.4266 35.4951 35.4189 35.513 35.2441 35.5145C34.884 35.5173 33.6366 35.8652 33.2222 36.0784C32.5695 36.414 32.5763 36.9249 33.2369 37.1883C33.7722 37.4018 35.7746 37.2703 39.6606 36.7662C40.6852 36.6334 40.087 36.8139 38.5571 37.0992C37.7129 37.2566 36.4264 37.4378 35.6981 37.5016C32.9099 37.7462 31.3197 38.2616 27.901 40.0286C24.5126 41.7799 24.3486 41.884 24.3074 42.3096C24.2767 42.6269 24.2252 42.6683 23.6601 42.8303C23.3224 42.9272 22.1237 43.312 20.9963 43.6854L18.9464 44.3644L17.2203 44.3677C15.8162 44.3704 15.3732 44.332 14.8468 44.162C12.5823 43.4303 11.0483 41.8674 10.5832 39.8182C10.3864 38.9512 10.5 37.6505 10.8386 36.8968C11.4378 35.5623 12.8157 34.5224 14.2534 34.3195C16.8664 33.9509 19.6355 36.0947 19.836 38.6414C19.8853 39.268 19.855 39.4364 19.5967 39.9747C18.7159 41.8104 16.1492 42.1193 14.6639 40.5683C13.8745 39.744 13.7405 38.8544 14.2829 38.0405C14.9339 37.064 16.551 36.9528 17.195 37.8404C17.4553 38.1992 17.364 38.5736 16.9973 38.6509C16.8529 38.6812 16.6166 38.7309 16.4723 38.7613C16.0913 38.8415 15.9975 39.2457 16.3015 39.4968C17.0717 40.1327 18.3531 39.2709 18.3531 38.117C18.3531 37.6522 18.3014 37.5403 17.8684 37.0683C16.8055 35.9099 15.0666 35.8809 13.8444 37.0013C13.2233 37.5707 12.9531 38.1608 12.9436 38.9687C12.9258 40.4886 13.7902 41.6533 15.4548 42.3525C16.2685 42.6942 17.6241 42.692 18.4881 42.3475C19.4371 41.9692 20.1118 41.3663 20.4965 40.5533C20.9245 39.6488 20.9961 39.0584 20.7958 38.0826C20.3233 35.7801 18.6022 34.007 16.2319 33.3808C13.0692 32.5452 9.95272 34.6804 9.48461 38.0034C9.37726 38.7658 9.38621 39.0373 9.54643 39.8687C9.80816 41.2266 10.3187 42.1819 11.3508 43.2448C12.0385 43.9531 12.353 44.1822 13.1953 44.5891C14.743 45.3365 15.3469 45.4716 17.1124 45.465C18.8024 45.4587 19.2902 45.3575 21.9896 44.4533C22.8325 44.171 23.5537 43.972 23.5922 44.0111C23.6306 44.0504 23.4946 44.2326 23.2897 44.4159C23.0848 44.5993 22.584 45.2517 22.1766 45.8656C21.7693 46.4796 21.3371 47.0203 21.2161 47.0672C21.0952 47.1139 20.5351 47.2392 19.9713 47.3456C17.99 47.7192 17.3787 48.1322 17.5367 48.9904C17.6287 49.4904 18.0873 49.8754 19.4979 50.6363C22.9458 52.4962 23.7474 52.945 23.7474 53.0153C23.7474 53.1852 19.8147 54.6889 18.2994 55.0983C14.3876 56.1553 11.5843 55.5241 10.8071 53.4114C10.4321 52.392 11.0668 51.2056 12.1927 50.8212C13.0601 50.5251 14.2559 50.8119 14.6389 51.4078C15.0752 52.0868 14.6764 52.8702 13.9605 52.7403C12.7847 52.5271 12.8662 52.5206 12.789 52.834C12.5753 53.7023 14.2725 54.0968 15.1812 53.3901C16.2658 52.5467 16.0027 50.9551 14.6362 50.0937C14.1915 49.8133 13.9763 49.7549 13.2677 49.7221C11.752 49.6518 10.5496 50.2961 9.96362 51.4922C9.60878 52.2167 9.62335 53.4206 9.9962 54.1835C10.3383 54.8834 11.1723 55.6897 11.9103 56.0341C12.9976 56.5413 13.7486 56.6691 15.2783 56.6073C17.6228 56.5124 20.0437 55.8286 23.6545 54.2415L25.126 53.5947L26.4595 54.3035C27.193 54.6933 28.8126 55.5592 30.0587 56.2276C34.8762 58.8118 36.8586 59.8054 37.341 59.8779C37.9073 59.963 39.1903 59.6444 44.5694 58.0828C49.6444 56.6095 51.5197 56.086 51.7228 56.086C51.8916 56.086 51.9056 56.42 51.9056 60.4245C51.9056 63.1107 51.9455 64.7881 52.0104 64.829C52.214 64.9574 52.7219 64.5689 53.2976 63.8448C53.9253 63.0551 54.5609 62.4968 54.6866 62.6246C54.7295 62.6682 54.7795 63.7995 54.7976 65.1385C54.8181 66.6515 54.8741 67.6267 54.9456 67.7146C55.009 67.7924 55.17 67.856 55.3036 67.856C55.5571 67.856 55.8324 67.4668 57.2484 65.106C57.5932 64.5312 57.919 64.0115 57.9725 63.951C58.0342 63.8812 58.5913 64.3965 59.4949 65.359C60.8075 66.7573 60.941 66.869 61.1867 66.7764L61.4535 66.6759L61.5075 60.9134C61.5372 57.7441 61.6007 55.0892 61.6487 55.0135C61.6967 54.9379 61.8225 54.876 61.9281 54.876C62.2855 54.876 63.3925 54.2281 63.8879 53.729C64.1587 53.4563 64.4949 52.9836 64.635 52.6787C64.8467 52.2178 64.9548 52.1068 65.2754 52.0213C65.4875 51.9648 67.6759 51.3995 70.1384 50.7652C78.0729 48.7214 79.8962 48.2256 80.3549 47.9871C80.7757 47.7682 81.0756 47.1759 80.9832 46.7464C80.8766 46.2516 80.4273 45.9122 78.876 45.1545L77.4207 44.4437L76.7273 43.2744C76.346 42.6312 75.9939 42.0798 75.9449 42.0489C75.8959 42.0181 75.8864 41.7981 75.9238 41.56C75.9697 41.2665 75.9438 41.0677 75.8431 40.9421C75.5704 40.6022 65.7087 35.7803 63.0179 34.6713C61.0179 33.847 59.5742 33.6353 57.4491 33.8552C55.9834 34.0069 54.8823 34.2918 53.7765 34.8056C52.6594 35.3246 52.5529 35.4344 52.5529 36.0664V36.5827L53.6048 36.0535C56.0831 34.8064 59.0897 34.5441 61.6079 35.3553C62.8221 35.7463 66.7408 37.5438 71.2622 39.7835L73.1952 40.7411L71.6126 40.8687C70.7422 40.9389 69.6296 41.0788 69.1402 41.1798C67.063 41.6081 64.8419 42.5418 63.4117 43.5878C61.943 44.6618 60.2601 46.7472 59.6742 48.2192L59.4226 48.8511L59.2631 48.5361C58.6883 47.4011 56.6775 45.3891 55.0229 44.2935C54.4552 43.9176 52.3165 42.6333 51.3867 42.1099C51.0729 41.9332 50.9396 41.7934 50.9766 41.6796C51.0067 41.587 51.2372 40.9171 51.4886 40.1911C51.9152 38.9597 51.9491 38.7765 51.9927 37.4629C52.0437 35.9225 51.9459 35.1896 51.5052 33.8111C50.5422 30.799 48.9554 28.6049 45.537 25.5585C42.1172 22.5108 39.0203 20.5418 32.6294 17.3517C30.6815 16.3793 28.1653 15.1232 27.0379 14.5603C21.1275 11.6095 17.8972 9.57888 12.2575 5.26921C10.5367 3.95416 8.97344 2.79686 8.78356 2.69731C8.31189 2.45003 7.7608 2.46862 7.41816 2.74351ZM34.1725 2.74802C34.1477 2.83228 34.0707 3.18439 34.0011 3.53056C33.834 4.36215 33.3186 5.39428 32.87 5.79589C32.4957 6.13094 32.0283 6.33708 30.9218 6.65531L30.2745 6.84154L31.0481 7.03712C32.9006 7.50572 33.5327 8.16186 34.0579 10.1612C34.2803 11.0079 34.292 11.0266 34.3662 10.6562C34.562 9.67711 34.9966 8.57117 35.3518 8.14812C35.8116 7.60032 36.615 7.1887 37.5838 7.00456C37.9842 6.92833 38.3117 6.84022 38.3113 6.80865C38.311 6.77708 37.9348 6.65927 37.4752 6.54685C37.0157 6.43454 36.4698 6.25326 36.2621 6.14404C35.4536 5.719 34.8489 4.76706 34.4887 3.35214C34.3082 2.64286 34.2409 2.51438 34.1725 2.74802ZM28.4987 3.22597C28.213 3.57687 28.6345 4.12851 28.9708 3.84395C29.1737 3.67213 29.1924 3.38195 29.0122 3.19825C28.8393 3.02192 28.6567 3.03171 28.4987 3.22597ZM23.488 3.8699C23.2429 4.05272 23.3022 4.44124 23.5753 4.44124C23.8833 4.44124 24.0529 4.10057 23.8486 3.89223C23.7098 3.75089 23.6524 3.74726 23.488 3.8699ZM20.4029 4.54398C20.4029 5.08859 20.1353 5.62682 19.7371 5.88312C19.5123 6.02776 19.2546 6.14623 19.1644 6.14623C18.8835 6.14623 18.9848 6.33554 19.3 6.39978C19.7874 6.49922 20.172 6.8873 20.3362 7.44566C20.4589 7.86266 20.5024 7.91921 20.5634 7.74123C20.8009 7.04911 20.8919 6.88642 21.1803 6.63903C21.3552 6.48899 21.5917 6.36623 21.7058 6.36623C21.82 6.36623 21.9133 6.31673 21.9133 6.25623C21.9133 6.19573 21.8422 6.14623 21.7552 6.14623C21.4548 6.14623 20.8404 5.47766 20.7097 5.00851C20.564 4.48557 20.4029 4.24159 20.4029 4.54398ZM8.31965 4.61614C8.31965 4.68203 8.42883 4.83427 8.5624 4.9545C8.69596 5.07462 8.74451 5.14161 8.67028 5.10311C8.49324 5.01137 8.50015 5.09761 8.70189 5.49526C8.79338 5.67577 8.91421 5.79445 8.97031 5.75914C9.02641 5.72372 9.044 5.77026 9.00937 5.86233C8.87721 6.21333 10.976 9.03361 12.1128 10.0326C12.9975 10.8101 13.9377 11.4529 14.9592 11.9785C15.6746 12.3467 15.961 12.5639 16.2023 12.9217C16.8366 13.8615 17.6063 14.3703 19.4072 15.0405C19.9972 15.26 20.505 15.5493 20.9625 15.9269C21.3362 16.2352 22.1139 16.7222 22.6905 17.0093C23.2673 17.2963 23.7413 17.5807 23.7439 17.6412C23.7466 17.7017 23.9062 17.8437 24.0986 17.9569C24.7539 18.3419 27.3592 19.6504 28.0628 19.948C28.4485 20.111 28.9546 20.3981 29.1875 20.586C29.4204 20.7737 29.5747 20.8677 29.5305 20.7948C29.4863 20.7217 29.6076 20.7517 29.8003 20.8614C30.0192 20.9862 30.1977 21.2035 30.2761 21.441C30.4354 21.9235 30.6947 21.9403 30.7392 21.471C30.7669 21.1809 30.8292 21.1081 31.103 21.0469C31.2968 21.0034 31.4556 20.8867 31.4869 20.7645C31.5162 20.6499 31.5817 20.5562 31.6322 20.5562C31.6828 20.5562 31.6962 20.6304 31.6621 20.7212C31.6227 20.8257 31.6635 20.8862 31.7733 20.8862C31.8687 20.8862 31.9467 20.9357 31.9467 20.9962C31.9467 21.0567 32.0341 21.1062 32.1409 21.1062C32.2477 21.1062 32.3934 21.1656 32.4646 21.2382C32.5652 21.3408 32.594 21.3408 32.594 21.2382C32.594 21.1656 32.6426 21.1062 32.7019 21.1062C32.7612 21.1062 32.8109 21.1681 32.8122 21.2437C32.815 21.4128 34.0133 21.9862 34.3638 21.9862C34.5292 21.9862 34.6388 22.0646 34.6759 22.2093C34.7074 22.332 34.798 22.4187 34.8773 22.4018C34.9648 22.3833 35.0352 22.4927 35.0562 22.6805C35.0848 22.9346 35.1186 22.9666 35.245 22.8596C35.4226 22.7094 35.4565 22.8736 35.2843 23.0492C35.203 23.132 35.2212 23.219 35.3459 23.3462C35.443 23.4452 35.4826 23.5262 35.4339 23.5262C35.3852 23.5262 35.9279 23.7993 36.6399 24.1331C39.2854 25.3735 41.1056 26.3322 41.063 26.463C41.0362 26.5454 41.0855 26.5694 41.1942 26.5268C41.3022 26.4846 41.3412 26.5032 41.2972 26.5759C41.2175 26.7075 41.4518 26.8261 41.7911 26.8261C41.9148 26.8261 41.9853 26.8575 41.9477 26.8958C41.9102 26.9342 42.4968 27.3627 43.2513 27.8481C44.0059 28.3337 44.8903 28.9299 45.2167 29.1732C46.0065 29.7619 47.4268 31.1662 47.824 31.7509C47.9995 32.0092 48.183 32.1954 48.232 32.1646C48.2809 32.1337 48.3809 32.1822 48.4542 32.2723C48.5468 32.3861 48.5506 32.4361 48.4664 32.4361C48.3999 32.4361 48.3454 32.3784 48.3454 32.3077C48.3454 32.2372 48.3162 32.2093 48.2804 32.2457C48.2447 32.2821 48.2933 32.4251 48.3883 32.5635C48.5051 32.7333 48.5636 32.7625 48.5687 32.6531C48.5736 32.5491 48.6095 32.5698 48.669 32.7111C48.749 32.9006 48.763 32.8855 48.771 32.6011C48.7781 32.3462 48.804 32.3086 48.8848 32.4361C48.9423 32.5269 48.9909 32.5516 48.9927 32.4911C48.9969 32.3505 49.2051 32.674 49.2051 32.8211C49.2051 32.8816 49.1641 32.8651 49.114 32.7844C49.039 32.6638 49.0122 32.6656 48.9638 32.7944C48.9313 32.8805 48.9481 33.0209 49.001 33.1061C49.0692 33.2158 49.0978 33.221 49.099 33.1236C49.1016 32.9097 49.4226 32.9619 49.437 33.1786C49.4441 33.2844 49.4441 33.4082 49.437 33.4536C49.43 33.4989 49.4728 33.5361 49.5321 33.5361C49.5915 33.5361 49.6321 33.5732 49.6226 33.6186C49.613 33.664 49.6619 33.8414 49.7313 34.0128C49.8006 34.1843 49.8299 34.3699 49.7962 34.4253C49.7627 34.4808 49.7813 34.5261 49.8379 34.5261C50.0352 34.5261 50.0733 34.8848 49.9112 35.216C49.709 35.6295 49.7015 35.7328 49.8933 35.4653C50.0935 35.1863 50.2799 35.3391 50.23 35.741C50.2061 35.9342 50.232 36.046 50.292 36.0081C50.3925 35.9448 50.4399 36.3028 50.3987 36.8144C50.3875 36.9538 50.4372 37.1401 50.5093 37.2287C50.6415 37.3912 50.6 39.0879 50.4487 39.6961C50.4001 39.8917 50.4097 39.9235 50.4817 39.8061C50.7339 39.396 50.8774 38.3621 50.8635 37.0561C50.8282 33.7285 49.5267 31.0759 46.3573 27.8711C43.917 25.4037 41.323 23.4817 37.0713 20.9906C36.0579 20.3968 31.0366 17.8435 28.9798 16.8761C27.8046 16.3234 23.4779 14.0979 22.0085 13.2903C18.9936 11.6335 15.9528 9.63916 11.7181 6.54146C9.23442 4.72471 8.31965 4.20639 8.31965 4.61614ZM40.3618 4.82481C40.2366 4.90621 40.227 4.97419 40.3194 5.12566C40.4913 5.40704 40.7632 5.42662 40.845 5.1635C40.9677 4.76937 40.7172 4.59381 40.3618 4.82481ZM58.6 5.20464C58.5291 5.29165 58.4868 5.50208 58.5059 5.67214C58.5692 6.23588 59.4577 6.1217 59.4577 5.54982C59.4577 5.08782 58.8832 4.8566 58.6 5.20464ZM8.91378 5.48503C8.87602 5.54729 8.91928 5.56577 9.0153 5.52826C9.20216 5.45511 9.23636 5.37624 9.08122 5.37624C9.02534 5.37624 8.95003 5.42519 8.91378 5.48503ZM34.0027 5.88466C33.8616 6.09465 33.6083 6.36645 33.4397 6.48877C33.0615 6.76344 33.0575 6.84561 33.4144 7.01138C33.7659 7.17473 34.356 7.06979 34.5941 6.8015C34.7624 6.61186 34.7619 6.56555 34.5852 6.09387C34.4812 5.81623 34.3653 5.56962 34.3276 5.54597C34.2901 5.52221 34.1438 5.67467 34.0027 5.88466ZM43.731 5.61505C43.6581 5.68941 43.5984 5.80854 43.5984 5.87982C43.5984 6.05361 43.9079 6.30727 44.0024 6.21092C44.0438 6.16879 44.0076 6.09013 43.9221 6.03623C43.8365 5.98233 43.7957 5.90841 43.8314 5.872C43.8671 5.83559 43.9789 5.88994 44.0798 5.99279C44.2524 6.16879 44.2611 6.16109 44.2275 5.86145C44.1889 5.51759 43.9451 5.3967 43.731 5.61505ZM26.5684 6.65388C26.3936 7.54136 26.0813 7.9939 25.43 8.3031C25.1275 8.44665 24.7981 8.56457 24.6977 8.56512C24.3678 8.5671 24.3911 8.75795 24.7298 8.82703C25.3187 8.94715 25.9899 9.30806 26.183 9.60847C26.2865 9.76962 26.4525 10.2041 26.5519 10.5743L26.7325 11.247L26.8666 10.7042C27.0863 9.81406 27.3936 9.36702 27.9961 9.06089C28.2935 8.90986 28.6242 8.78622 28.7313 8.78622C29.0896 8.78622 28.931 8.61319 28.4532 8.48295C27.61 8.25306 27.1747 7.7068 26.8759 6.50373C26.8121 6.24666 26.7441 6.03623 26.725 6.03623C26.7058 6.03623 26.6354 6.3142 26.5684 6.65388ZM66.2799 7.59922C66.0528 8.57414 65.3869 9.1886 64.3222 9.40574C63.9435 9.48296 63.8708 9.66622 64.2191 9.66622C64.6419 9.66622 65.2675 9.91405 65.6447 10.2311C66.0185 10.5452 66.3624 11.3117 66.3624 11.8308C66.3624 11.9713 66.4109 12.0862 66.4702 12.0862C66.5296 12.0862 66.5781 11.9713 66.5781 11.8308C66.5781 11.3774 66.9157 10.549 67.2317 10.2267C67.4127 10.0422 67.8109 9.83001 68.1985 9.71165L68.8576 9.51035L68.2972 9.32412C67.335 9.00435 66.7704 8.41112 66.6318 7.57425C66.5288 6.95297 66.4288 6.96012 66.2799 7.59922ZM33.9965 7.37669C33.9965 7.47162 34.0694 7.61088 34.1584 7.68623C34.3642 7.86047 34.3622 7.69701 34.1549 7.41772C34.0281 7.24678 33.9965 7.23864 33.9965 7.37669ZM41.8905 8.74871C41.7357 9.33842 41.2631 9.86191 40.8004 9.95629C40.3924 10.0394 40.3755 10.1683 40.7598 10.2666C41.2746 10.3984 41.6362 10.7521 41.8482 11.3315L42.053 11.8914L42.1932 11.3809C42.3492 10.8129 42.7966 10.3522 43.2898 10.2516C43.6884 10.1703 43.6837 10.0328 43.2793 9.94221C42.8667 9.84981 42.3341 9.22809 42.2429 8.73232C42.1402 8.17419 42.0399 8.1788 41.8905 8.74871ZM50.0619 9.64774C50.1201 9.75862 50.2524 9.91944 50.3561 10.0052C50.4726 10.1018 50.4465 10.0249 50.2877 9.80372C50.0044 9.40904 49.8981 9.33567 50.0619 9.64774ZM22.8956 9.70725C22.7534 9.88193 22.8463 10.2162 23.037 10.2162C23.1084 10.2162 23.2591 10.1474 23.372 10.0631C23.5465 9.93308 23.5558 9.88347 23.4334 9.7331C23.2569 9.5164 23.0587 9.50683 22.8956 9.70725ZM61.7803 10.1612C61.586 11.0206 61.1668 11.5636 60.5821 11.7132C60.2261 11.8043 60.2535 11.9436 60.6447 12.0313C61.1153 12.1367 61.566 12.6523 61.7209 13.2625L61.8551 13.7912L62.0144 13.2412C62.2109 12.5627 62.4866 12.2485 63.0542 12.0555L63.4918 11.9068L62.9822 11.6552C62.4525 11.3938 62.2305 11.0852 61.9867 10.2712L61.855 9.83122L61.7803 10.1612ZM37.5179 10.9697C37.4327 11.5128 37.1097 11.9279 36.6365 12.1024C36.1778 12.2716 36.1625 12.3764 36.5829 12.4705C36.9529 12.5534 37.4202 13.0695 37.5123 13.4972C37.5472 13.6589 37.5877 13.8407 37.6025 13.9012C37.6173 13.9617 37.6921 13.8132 37.7686 13.5712C37.947 13.007 38.1589 12.7609 38.6694 12.5252L39.0808 12.3352L38.6014 12.0488C38.1413 11.7739 37.7726 11.1777 37.7726 10.709C37.7726 10.3691 37.5815 10.5647 37.5179 10.9697ZM50.5031 11.3097C50.5031 11.3667 50.5511 11.4435 50.6098 11.4804C50.6709 11.5189 50.689 11.4748 50.6522 11.3769C50.5805 11.1864 50.5031 11.1515 50.5031 11.3097ZM30.0648 11.5607C29.7049 12.0846 29.9934 12.6362 30.6275 12.6362C30.9846 12.6362 31.2994 12.3154 31.2994 11.9517C31.2994 11.3889 30.3824 11.0984 30.0648 11.5607ZM51.7977 11.8478C51.7977 11.8983 51.8684 11.9396 51.9548 11.9396C52.0412 11.9396 52.0869 11.8983 52.0563 11.8478C52.0258 11.7975 51.9551 11.7562 51.8993 11.7562C51.8434 11.7562 51.7977 11.7975 51.7977 11.8478ZM51.4201 12.1962C51.4568 12.2567 51.5082 12.3062 51.5344 12.3062C51.5606 12.3062 51.582 12.2567 51.582 12.1962C51.582 12.1357 51.5305 12.0862 51.4677 12.0862C51.4049 12.0862 51.3835 12.1357 51.4201 12.1962ZM69.8673 13.5208C69.7788 13.8048 69.9316 13.9917 70.2079 13.9375C70.3389 13.9118 70.4081 13.8036 70.4081 13.6247C70.4081 13.2566 69.9754 13.1734 69.8673 13.5208ZM53.0924 13.6262C53.0924 13.6867 53.1438 13.7362 53.2066 13.7362C53.2694 13.7362 53.2909 13.6867 53.2542 13.6262C53.2175 13.5657 53.1662 13.5162 53.14 13.5162C53.1137 13.5162 53.0924 13.5657 53.0924 13.6262ZM67.5467 14.5337C67.5454 14.6699 67.4555 14.9808 67.3467 15.2249C67.1581 15.6482 66.7132 15.9724 65.9848 16.2171C65.8142 16.2745 65.8885 16.3303 66.3395 16.4839C66.6533 16.5906 66.9235 16.6967 66.9398 16.7196C66.9562 16.7425 67.0755 16.9037 67.2051 17.0781C67.3345 17.2523 67.4935 17.5959 67.5584 17.8414L67.6763 18.2879L67.866 17.7168C68.1088 16.9851 68.3179 16.7574 68.9764 16.507L69.5107 16.3037L69.0205 16.1128C68.3987 15.8707 67.9168 15.3176 67.8203 14.7351C67.7413 14.2583 67.5507 14.118 67.5467 14.5337ZM34.2 14.9696L34.0723 15.2129L34.3713 15.0132C34.5359 14.9033 34.6453 14.8557 34.6145 14.9073C34.5838 14.959 34.6264 15.065 34.7091 15.143C34.8876 15.3112 34.9024 15.2332 34.748 14.9389C34.5994 14.656 34.3575 14.6695 34.2 14.9696ZM34.2709 15.3786C34.1991 15.497 34.4103 15.661 34.5072 15.5622C34.5428 15.5259 34.5125 15.4962 34.4397 15.4962C34.367 15.4962 34.3375 15.4467 34.3741 15.3862C34.4108 15.3257 34.4165 15.2762 34.3869 15.2762C34.3572 15.2762 34.305 15.3223 34.2709 15.3786ZM41.3539 15.7313C41.1938 16.3794 40.8641 16.7939 40.3179 17.0339L39.8763 17.2278L40.3177 17.3516C40.8667 17.5054 41.0987 17.7611 41.3348 18.4724L41.5198 19.0292L41.6412 18.537C41.7961 17.9105 42.2121 17.4048 42.6573 17.3023L43.005 17.2222L42.6814 17.0844C42.2054 16.8817 41.8694 16.4623 41.6612 15.8111L41.4767 15.2342L41.3539 15.7313ZM53.9555 16.3881C53.9555 16.5479 54.1485 16.5953 54.2036 16.4489C54.2338 16.3686 54.1903 16.3028 54.107 16.3028C54.0237 16.3028 53.9555 16.3412 53.9555 16.3881ZM62.9521 16.6533C62.6439 16.9675 62.6228 17.2662 62.8916 17.5141C63.1521 17.7546 63.588 17.7455 63.8103 17.495C64.3549 16.8814 63.5258 16.0683 62.9521 16.6533ZM49.3103 17.171C49.6927 17.5776 50.0244 17.8909 50.0475 17.8673C50.1335 17.7797 50.067 17.641 49.9367 17.6362C49.8626 17.6335 49.818 17.5592 49.8378 17.4712C49.8576 17.3832 49.8362 17.3495 49.7902 17.3963C49.7442 17.4432 49.461 17.2454 49.1609 16.9568C48.8065 16.616 48.8588 16.6911 49.3103 17.171ZM12.3204 16.747C12.5646 16.9685 16.6571 18.2352 20.1871 19.1817C22.4433 19.7867 24.1099 20.263 26.1109 20.8747C26.7286 21.0636 27.2532 21.1982 27.277 21.1741C27.3006 21.1499 26.9652 20.9907 26.5316 20.8199C26.098 20.6493 25.8257 20.4924 25.9264 20.471C26.0271 20.4497 26.206 20.4849 26.3239 20.5492C26.4418 20.6136 26.6507 20.6613 26.788 20.6553C27.0408 20.6443 26.6547 20.4906 25.5814 20.1751C25.3144 20.0967 24.0279 19.7013 22.7224 19.2966C21.417 18.8918 19.7906 18.439 19.1083 18.2904C17.5261 17.946 13.8433 17.0802 13.0595 16.8684C12.4611 16.7067 12.2352 16.6696 12.3204 16.747ZM50.3369 17.3736C50.2977 17.438 50.2888 17.5145 50.3171 17.5433C50.3454 17.5721 50.3973 17.5193 50.4324 17.4259C50.5054 17.2321 50.4432 17.198 50.3369 17.3736ZM50.5031 17.5325C50.5031 17.6699 50.8029 17.904 50.882 17.8284C50.9266 17.7859 50.9019 17.8536 50.8272 17.9787C50.7103 18.1747 50.7331 18.2738 50.992 18.6937C51.3961 19.349 52.7224 20.845 53.2427 21.2323C53.6341 21.5237 53.6722 21.532 53.8002 21.3534C53.8962 21.2195 53.904 21.1205 53.8259 21.0245C53.7645 20.9491 53.741 20.7832 53.7736 20.6558C53.8063 20.5286 53.8078 20.45 53.7771 20.4814C53.6946 20.5655 53.2003 20.0995 53.2003 19.9375C53.2003 19.8612 53.1035 19.7295 52.9851 19.645C52.8669 19.5606 52.8022 19.4587 52.8413 19.4188C52.8805 19.3788 52.8572 19.3462 52.7895 19.3462C52.7219 19.3462 52.4556 19.1357 52.1978 18.8787C51.9399 18.6216 51.591 18.2874 51.4224 18.1362C51.1516 17.8933 51.125 17.8868 51.1935 18.0812C51.2436 18.2232 51.2344 18.2622 51.1673 18.1912C51.1102 18.1307 51.046 17.9822 51.0245 17.8612C51.0032 17.7402 50.9378 17.6404 50.8792 17.6395C50.8207 17.6385 50.7122 17.5985 50.638 17.5505C50.5638 17.5025 50.5031 17.4944 50.5031 17.5325ZM50.8353 18.2003C50.8405 18.3285 50.866 18.3545 50.9005 18.2669C50.9316 18.1874 50.9277 18.0925 50.8919 18.056C50.8561 18.0195 50.8306 18.0844 50.8353 18.2003ZM71.6576 18.8022C71.4838 19.494 70.9417 20.0615 70.2544 20.2715L69.7608 20.4222L70.0645 20.5442C70.2315 20.6113 70.4361 20.6662 70.5192 20.6662C70.8669 20.6662 71.4311 21.3456 71.6288 22.0027L71.826 22.6576L72.0036 22.0064C72.2016 21.2804 72.718 20.7066 73.2759 20.5929C73.4491 20.5576 73.5886 20.4978 73.5859 20.4599C73.5832 20.4221 73.3282 20.2674 73.0195 20.1162C72.5775 19.8997 72.4062 19.7367 72.2152 19.3504C72.0817 19.0804 71.9724 18.7216 71.9724 18.5529C71.9724 18.0669 71.8102 18.1955 71.6576 18.8022ZM51.2583 18.6862C51.2583 18.7467 51.3098 18.7962 51.3726 18.7962C51.4354 18.7962 51.4568 18.7467 51.4201 18.6862C51.3835 18.6257 51.3321 18.5762 51.3059 18.5762C51.2797 18.5762 51.2583 18.6257 51.2583 18.6862ZM51.6899 19.0162C51.7534 19.1372 51.8296 19.2362 51.8592 19.2362C51.8889 19.2362 51.8613 19.1372 51.7977 19.0162C51.7342 18.8952 51.658 18.7962 51.6284 18.7962C51.5987 18.7962 51.6263 18.8952 51.6899 19.0162ZM3.43101 19.0162C3.40016 19.1069 3.34664 19.3135 3.31201 19.4752C3.22797 19.8678 2.68012 20.4111 2.27749 20.5013C1.89245 20.5875 1.93895 20.7311 2.38419 20.8308C2.78628 20.9208 3.21902 21.4363 3.31072 21.9344C3.39002 22.3659 3.57267 22.4516 3.57267 22.0574C3.57267 21.664 4.01176 21.0758 4.47999 20.8418L4.89912 20.6326L4.53242 20.4408C4.03097 20.1785 3.79621 19.8892 3.62898 19.3276C3.54429 19.0432 3.46446 18.9177 3.43101 19.0162ZM51.3662 19.0097C51.3662 19.0667 51.4142 19.1434 51.4729 19.1804C51.534 19.2189 51.5521 19.1748 51.5153 19.0769C51.4436 18.8864 51.3662 18.8515 51.3662 19.0097ZM53.5239 19.6212C53.6633 19.7724 53.8016 19.8962 53.8313 19.8962C53.861 19.8962 53.7712 19.7724 53.6318 19.6212C53.4924 19.4699 53.3541 19.3462 53.3244 19.3462C53.2948 19.3462 53.3845 19.4699 53.5239 19.6212ZM20.4749 19.9695C20.325 20.1223 20.4114 20.5531 20.6141 20.6637C20.7838 20.7563 20.8475 20.7368 20.9378 20.5647C21.0981 20.2594 21.0769 20.0402 20.8795 19.9629C20.6602 19.8771 20.5639 19.8787 20.4749 19.9695ZM52.3372 20.0477C52.3372 20.0705 52.4222 20.1572 52.526 20.2402C52.6971 20.377 52.7009 20.3731 52.5668 20.1987C52.4257 20.0154 52.3372 19.9572 52.3372 20.0477ZM63.4867 20.3422C63.3214 20.5107 63.4352 20.8865 63.6509 20.8845C63.9858 20.8813 64.1626 20.6919 64.0313 20.4768C63.8849 20.2371 63.6474 20.1783 63.4867 20.3422ZM63.7192 20.6662C63.6825 20.7267 63.7039 20.7762 63.7667 20.7762C63.8295 20.7762 63.881 20.7267 63.881 20.6662C63.881 20.6057 63.8596 20.5562 63.8334 20.5562C63.8072 20.5562 63.7558 20.6057 63.7192 20.6662ZM53.1215 20.8037C53.1475 20.8793 53.2552 20.9251 53.361 20.9054C53.4896 20.8814 53.534 20.9209 53.4949 21.0245C53.4629 21.1098 53.5002 21.1795 53.5779 21.1795C53.7675 21.1795 53.6551 20.9066 53.4104 20.7731C53.1476 20.6296 53.0649 20.6384 53.1215 20.8037ZM53.8476 20.8862C53.8476 20.9467 53.8961 20.9962 53.9555 20.9962C54.0148 20.9962 54.0633 20.9467 54.0633 20.8862C54.0633 20.8257 54.0148 20.7762 53.9555 20.7762C53.8961 20.7762 53.8476 20.8257 53.8476 20.8862ZM59.2121 20.9111C59.2719 20.9881 59.3477 21.1254 59.3807 21.2162C59.4216 21.3288 59.4433 21.3064 59.4491 21.1454C59.4538 21.0157 59.3779 20.8786 59.2806 20.8404C59.1481 20.7886 59.1309 20.8064 59.2121 20.9111ZM7.75886 21.0589C7.72682 21.1151 7.66878 21.3418 7.62972 21.5626C7.59067 21.7832 7.4584 22.094 7.33562 22.253C7.09795 22.5611 6.39216 22.9762 6.10594 22.9762C5.82759 22.9762 6.0206 23.1618 6.37371 23.2339C6.88693 23.3385 7.44308 23.9388 7.6636 24.6261L7.85768 25.2311L7.94 24.8461C8.11413 24.0317 8.40521 23.6344 9.04734 23.3346L9.65356 23.0517L9.12146 22.8099C8.45473 22.5069 8.23097 22.2514 8.00009 21.529C7.89933 21.2142 7.7908 21.0025 7.75886 21.0589ZM35.586 21.2298C35.6593 21.305 35.7463 21.3388 35.7795 21.3049C35.8127 21.2711 35.7528 21.2096 35.6464 21.1682C35.4927 21.1086 35.4803 21.1211 35.586 21.2298ZM24.071 21.4216C24.071 21.7028 24.2813 21.8421 24.405 21.6427C24.5309 21.4397 24.4701 21.279 24.2509 21.2356C24.131 21.2119 24.071 21.2739 24.071 21.4216ZM53.8476 21.5397C53.8476 21.5967 53.8956 21.6734 53.9543 21.7104C54.0153 21.7489 54.0335 21.7048 53.9967 21.6069C53.9249 21.4164 53.8476 21.3815 53.8476 21.5397ZM48.861 21.7175C49.095 21.8846 49.5321 22.0206 49.5321 21.9263C49.5321 21.8765 48.7967 21.5462 48.6858 21.5462C48.6502 21.5462 48.729 21.6233 48.861 21.7175ZM34.7089 21.7478C34.6784 21.7983 34.724 21.8395 34.8104 21.8395C34.8968 21.8395 34.9675 21.7983 34.9675 21.7478C34.9675 21.6974 34.9219 21.6562 34.866 21.6562C34.8101 21.6562 34.7394 21.6974 34.7089 21.7478ZM66.2521 21.9037C66.2508 22.0398 66.1554 22.363 66.0402 22.6218C65.8704 23.0033 65.7235 23.1432 65.2658 23.3594C64.8014 23.5788 64.7385 23.6398 64.9114 23.7025C65.6206 23.9594 65.8414 24.1017 66.0359 24.4271C66.1557 24.6273 66.2538 24.9054 66.254 25.0451C66.2546 25.3853 66.4267 25.2607 66.5046 24.8637C66.5935 24.4104 67.0601 23.8926 67.5186 23.7382L67.9126 23.6057L67.4237 23.3524C66.8721 23.0666 66.6499 22.7765 66.4749 22.1138C66.341 21.6068 66.2558 21.5264 66.2521 21.9037ZM54.1712 21.8094C54.1712 21.8332 54.2465 21.8821 54.3387 21.9182C54.4347 21.9557 54.478 21.9372 54.4402 21.875C54.3769 21.7703 54.1712 21.7203 54.1712 21.8094ZM49.7001 22.2521C49.8152 22.3379 49.9324 22.3848 49.9603 22.3562C50.0198 22.2957 49.7415 22.1003 49.5924 22.0978C49.5366 22.0969 49.5851 22.1663 49.7001 22.2521ZM50.1628 22.5665C50.2427 22.6669 50.5097 22.8665 50.7562 23.0098C51.8829 23.665 52.0534 23.7552 51.8517 23.5893C51.733 23.4918 51.5388 23.3278 51.4201 23.225C51.3015 23.1221 51.1455 23.0286 51.0734 23.0174C51.0013 23.0061 50.8071 22.9012 50.6419 22.7845C50.4766 22.6677 50.2685 22.5299 50.1795 22.4781C50.0409 22.3974 50.0386 22.4102 50.1628 22.5665ZM27.9109 23.6912C27.8137 23.8424 27.6382 23.9662 27.5209 23.9662C27.276 23.9662 27.2486 24.0784 27.4425 24.2879C27.554 24.4086 27.4284 24.4225 26.7142 24.3689C23.477 24.1254 21.3302 24.055 19.399 24.1288C18.2238 24.1738 17.2771 24.225 17.2952 24.2425C17.4178 24.3612 27.5828 24.8897 27.7473 24.786C27.8101 24.7464 27.8882 24.818 27.9208 24.945C27.9892 25.2119 28.2268 25.2524 28.317 25.0127C28.3773 24.8526 28.6897 24.8529 29.7081 25.0138C29.9135 25.0462 30.0048 25.0128 30.0048 24.9051C30.0048 24.8038 29.8264 24.7228 29.4923 24.6727C28.8902 24.5822 28.4311 24.4244 28.7371 24.4131C28.9928 24.4037 28.9755 24.221 28.7049 24.0733C28.5835 24.0071 28.439 23.8321 28.384 23.6844C28.2569 23.3436 28.1331 23.3453 27.9109 23.6912ZM52.578 24.0073C52.7494 24.1822 54.0763 24.8696 54.1322 24.8126C54.1528 24.7916 53.9395 24.6586 53.658 24.5173C53.3765 24.3758 53.0306 24.1692 52.889 24.0581C52.5894 23.8229 52.3605 23.7856 52.578 24.0073ZM73.3289 24.3469C73.2434 24.8112 72.7662 25.3205 72.2794 25.4668L71.9185 25.5751L72.404 25.7978C72.9927 26.0678 73.1254 26.2215 73.3047 26.8416L73.4432 27.3211L73.5843 26.8811C73.761 26.3293 74.0763 25.9652 74.5617 25.752L74.9393 25.5862L74.494 25.3914C73.9876 25.1699 73.7295 24.8508 73.6332 24.3274C73.5469 23.8589 73.4171 23.8672 73.3289 24.3469ZM1.38797 24.9993C1.18666 25.1551 1.12268 25.3474 1.31181 25.2282C1.43803 25.1486 1.7386 25.3634 1.7386 25.5331C1.7386 25.5937 1.6647 25.5806 1.57418 25.5039C1.48378 25.4274 1.38549 25.3895 1.35582 25.4198C1.25106 25.5266 1.60579 25.729 1.77884 25.6612C1.97088 25.5861 2.01932 25.3961 1.84649 25.3961C1.78715 25.3961 1.7386 25.3414 1.7386 25.2744C1.7386 25.2074 1.81143 25.1811 1.90043 25.216C2.09473 25.292 2.11254 25.1614 1.9328 24.9781C1.76806 24.8102 1.62511 24.8158 1.38797 24.9993ZM57.5157 24.9433C57.5157 24.9967 57.4186 25.0664 57.2999 25.098C57.0339 25.169 57.0331 25.27 57.2959 25.5913L57.5006 25.8415L57.7583 25.5787C58.0055 25.3267 58.0084 25.3064 57.8295 25.0811C57.6325 24.8331 57.5157 24.7818 57.5157 24.9433ZM1.57677 25.0661C1.54009 25.1266 1.56156 25.1761 1.62435 25.1761C1.68714 25.1761 1.7386 25.1266 1.7386 25.0661C1.7386 25.0056 1.71724 24.9561 1.69103 24.9561C1.66481 24.9561 1.61345 25.0056 1.57677 25.0661ZM52.5529 25.0661C52.5529 25.1266 52.6015 25.1761 52.6608 25.1761C52.7202 25.1761 52.7687 25.1266 52.7687 25.0661C52.7687 25.0056 52.7202 24.9561 52.6608 24.9561C52.6015 24.9561 52.5529 25.0056 52.5529 25.0661ZM22.4527 25.2861C22.1728 25.5716 22.1806 25.6787 22.5059 26.0104C22.725 26.2338 22.8146 26.2631 22.9889 26.1679C23.1066 26.1037 23.2568 25.9486 23.3226 25.8233C23.421 25.6358 23.399 25.5485 23.1983 25.3308C22.9015 25.0086 22.7347 24.9986 22.4527 25.2861ZM60.0035 26.2211C59.9716 26.978 59.9555 27.0395 59.8888 26.6611C59.8249 26.2994 59.8132 26.3542 59.8232 26.9697C59.8348 27.6914 59.8402 27.7059 59.9744 27.3721C60.0604 27.1583 60.0997 26.7037 60.0771 26.1835L60.0405 25.3411L60.0035 26.2211ZM49.9142 25.7335C49.9533 25.798 50.0099 25.8257 50.04 25.7951C50.0699 25.7644 50.1501 25.7875 50.218 25.8465C50.7201 26.2823 52.4451 27.1194 52.4451 26.9273C52.4451 26.8717 52.3722 26.8261 52.2832 26.8261C52.1942 26.8261 52.121 26.7891 52.1205 26.7436C52.1201 26.6982 52.0108 26.607 51.8778 26.5408C51.7448 26.4746 51.2879 26.2394 50.8625 26.0183C50.0761 25.6094 49.7862 25.5223 49.9142 25.7335ZM35.4583 25.9994L35.1398 26.2647L35.4313 26.3777C35.5915 26.4398 35.7227 26.5693 35.7227 26.6653C35.7227 26.7935 35.805 26.7576 36.0318 26.5306L36.3409 26.2211L36.0801 25.9736C35.9368 25.8375 35.8099 25.7279 35.798 25.7301C35.7863 25.7323 35.6334 25.8534 35.4583 25.9994ZM31.1876 26.3935C30.9997 26.7517 31.2415 27.1561 31.6435 27.1561C32.0151 27.1561 32.2802 26.712 32.0918 26.4051C31.912 26.1121 31.3392 26.1048 31.1876 26.3935ZM67.9229 27.0732C67.8035 27.8004 67.376 29.0047 67.0697 29.4766C66.6774 30.081 66.1386 30.4022 64.9598 30.7348C64.3961 30.8937 63.8621 31.0501 63.7731 31.0824C63.6841 31.1145 64.1249 31.2714 64.7527 31.4309C65.9883 31.7451 66.5997 32.0813 67.0639 32.7018C67.3805 33.1248 67.8487 34.4274 67.9471 35.1586C68.0244 35.733 68.1468 35.7605 68.2324 35.2227C68.2677 35.0009 68.4253 34.4074 68.5824 33.9039C69.0702 32.3422 69.7543 31.7775 71.6883 31.3409C72.171 31.232 72.493 31.1163 72.404 31.084C72.315 31.0517 71.9023 30.9385 71.487 30.8323C69.7682 30.3932 69.0695 29.7466 68.5339 28.0995C68.3482 27.5288 68.1964 26.9871 68.1964 26.8956C68.1964 26.5107 67.9937 26.6423 67.9229 27.0732ZM56.5071 27.2011C56.4064 27.3579 56.228 27.4861 56.1107 27.4861C55.7939 27.4861 55.8537 27.735 56.2217 27.9485C56.3994 28.0515 56.5447 28.2125 56.5447 28.306C56.5447 28.5776 56.7306 28.5026 56.8048 28.2011C56.8421 28.0499 56.9384 27.9261 57.0191 27.9261C57.0997 27.9261 57.2281 27.8494 57.3045 27.7555C57.4218 27.6114 57.4066 27.5752 57.2062 27.5218C57.0757 27.487 56.9063 27.3365 56.8297 27.1874L56.6903 26.9161L56.5071 27.2011ZM44.5694 27.3211C44.7088 27.4724 44.8471 27.5961 44.8767 27.5961C44.9064 27.5961 44.8166 27.4724 44.6773 27.3211C44.5379 27.1699 44.3996 27.0461 44.3699 27.0461C44.3402 27.0461 44.43 27.1699 44.5694 27.3211ZM53.3621 27.2661C53.4694 27.3871 53.5816 27.4861 53.6113 27.4861C53.641 27.4861 53.5773 27.3871 53.47 27.2661C53.3626 27.1451 53.2504 27.0461 53.2208 27.0461C53.1911 27.0461 53.2547 27.1451 53.3621 27.2661ZM63.881 27.3094C63.881 27.6283 64.1149 27.7423 64.3735 27.5495C64.6331 27.356 64.498 27.0461 64.154 27.0461C63.9379 27.0461 63.881 27.101 63.881 27.3094ZM4.38332 28.0659C4.14694 29.0637 3.6511 30.1948 3.27069 30.6035C2.87561 31.028 2.18773 31.3613 1.09129 31.6594C0.586918 31.7966 0.101431 31.935 0.0124251 31.967C-0.0765809 31.9989 0.322274 32.1404 0.898817 32.2815C3.06258 32.8107 3.74669 33.4711 4.32841 35.5924C4.59068 36.5488 4.75941 36.7986 4.75941 36.2303C4.75941 35.8162 5.37576 34.0885 5.6868 33.6308C5.85079 33.3896 6.20368 33.0615 6.47103 32.9017C7.01358 32.5776 8.49982 32.1061 8.97916 32.1061C9.54999 32.1061 9.30055 31.9413 8.42646 31.741C6.43143 31.2839 5.63253 30.5927 5.08512 28.8502C4.90603 28.28 4.75941 27.718 4.75941 27.6013C4.75941 27.0862 4.55583 27.3376 4.38332 28.0659ZM52.9845 27.3094C52.9845 27.3331 53.0598 27.3821 53.1519 27.4182C53.2479 27.4557 53.2912 27.4372 53.2534 27.3749C53.1901 27.2703 52.9845 27.2203 52.9845 27.3094ZM41.6123 28.3103C41.571 28.4781 41.4423 28.6091 41.2772 28.6514C40.935 28.7389 40.9133 29.1068 41.2475 29.1559C41.3957 29.1778 41.509 29.292 41.5472 29.458C41.6358 29.8441 41.8057 29.848 41.9467 29.4671C42.0141 29.2851 42.1463 29.1361 42.2404 29.1361C42.4941 29.1361 42.4482 28.9222 42.1419 28.6764C41.9936 28.5575 41.8722 28.3924 41.8722 28.3096C41.8722 28.0335 41.6804 28.0339 41.6123 28.3103ZM45.5943 28.2561C45.7016 28.3771 45.8138 28.4761 45.8435 28.4761C45.8732 28.4761 45.8095 28.3771 45.7022 28.2561C45.5948 28.1351 45.4826 28.0361 45.453 28.0361C45.4233 28.0361 45.4869 28.1351 45.5943 28.2561ZM14.4152 28.9572C14.2568 29.2905 14.1062 29.4391 13.8488 29.5164C13.4917 29.6235 13.3715 29.7961 13.654 29.7961C13.9089 29.7961 14.3955 30.2909 14.5326 30.6895C14.6445 31.0145 14.67 31.0335 14.7364 30.8411C14.9305 30.2791 15.0919 30.0763 15.4641 29.9266C15.8707 29.7631 15.9172 29.5761 15.5513 29.5761C15.3319 29.5761 14.7928 28.9883 14.7928 28.7492C14.7928 28.4289 14.6215 28.5233 14.4152 28.9572ZM27.5234 28.701C24.8425 28.9793 24.1889 29.057 23.8013 29.1437C23.322 29.251 25.3168 29.2078 29.4653 29.0212C32.5248 28.8836 33.3062 28.8087 32.9177 28.6903C32.5686 28.5838 28.5747 28.5917 27.5234 28.701ZM38.4835 28.9001C38.3764 29.0768 38.5432 29.3692 38.7301 29.3325C38.9599 29.2874 38.9571 28.8743 38.7266 28.829C38.6283 28.8098 38.5189 28.8418 38.4835 28.9001ZM59.7407 28.9754C59.6366 29.252 59.6673 29.3233 59.7945 29.1004C59.8575 28.9899 59.8863 28.8764 59.8585 28.8482C59.8307 28.8198 59.7776 28.8771 59.7407 28.9754ZM54.7624 29.3597C54.7206 29.4287 54.7371 29.5371 54.7991 29.6003C54.9441 29.7482 55.2821 29.6192 55.2231 29.4385C55.1631 29.2547 54.8578 29.2024 54.7624 29.3597ZM59.5741 29.4296C59.5694 29.5003 59.5376 29.6488 59.5034 29.7596C59.4444 29.9511 59.4475 29.9514 59.565 29.7644C59.6331 29.6563 59.6648 29.5078 59.6357 29.4345C59.5974 29.3382 59.5802 29.3369 59.5741 29.4296ZM28.3002 29.5981C28.108 29.794 28.1392 30.3407 28.3472 30.4221C28.7733 30.5888 29.0765 30.0381 28.7568 29.678C28.5373 29.4306 28.4751 29.4197 28.3002 29.5981ZM67.9282 29.9012C67.8914 30.0194 67.6144 30.3426 67.3126 30.6193C67.0109 30.8959 66.7828 31.1408 66.8059 31.1634C66.9148 31.2705 67.3555 31.2571 68.1853 31.1218C69.0429 30.982 69.0765 30.9663 68.8152 30.8267C68.649 30.7379 68.4651 30.4815 68.3531 30.1827C68.1513 29.6441 68.0328 29.5656 67.9282 29.9012ZM75.0189 30.0436C74.8789 30.2208 75.0425 30.6761 75.2462 30.6761C75.5158 30.6761 75.67 30.3877 75.5363 30.1332C75.4019 29.8771 75.1808 29.8388 75.0189 30.0436ZM4.40533 30.6981C4.30047 30.9495 4.02633 31.2584 3.68821 31.506C3.38721 31.7265 3.16496 31.9464 3.1942 31.9947C3.22344 32.043 3.52692 32.0888 3.8686 32.0965C4.21016 32.1044 4.58626 32.1221 4.70428 32.1359C4.83817 32.1517 4.95943 32.0679 5.02654 31.9136C5.08577 31.7774 5.20768 31.6646 5.29744 31.6626C5.42593 31.6598 5.41773 31.626 5.25903 31.5034C5.14813 31.4177 4.94886 31.11 4.81627 30.8195L4.57504 30.2911L4.40533 30.6981ZM59.087 30.6439C59.0285 30.8006 59.0408 30.8133 59.1474 30.7055C59.2212 30.6308 59.2543 30.542 59.2211 30.5083C59.1878 30.4744 59.1275 30.5354 59.087 30.6439ZM40.3259 30.7495C40.2129 30.8646 40.24 30.9762 40.4272 31.1671C40.561 31.3035 40.6348 31.3147 40.7509 31.2164C40.9993 31.0062 40.9374 30.6761 40.6495 30.6761C40.511 30.6761 40.3654 30.7091 40.3259 30.7495ZM43.8861 30.7495C43.8465 30.7898 43.8142 30.9082 43.8142 31.0127C43.8142 31.214 43.6071 31.3361 43.2659 31.3361C42.9942 31.3361 43 31.6262 43.2747 31.7761C43.552 31.9274 43.5493 32.1258 43.2675 32.3052C42.9752 32.4912 43.0529 32.6973 43.4415 32.7666C43.6804 32.809 43.7759 32.9054 43.8538 33.1826C43.9758 33.6162 44.15 33.5914 44.269 33.1233C44.3361 32.8592 44.4237 32.7725 44.6506 32.7458C45.0192 32.7024 45.1249 32.3385 44.7945 32.2504C44.5057 32.1734 44.5038 31.9222 44.7913 31.8291C45.1044 31.7278 45.0114 31.3989 44.6577 31.3571C44.4513 31.3327 44.339 31.232 44.2596 30.9996C44.1515 30.6833 44.0305 30.6022 43.8861 30.7495ZM33.7808 32.1611C31.9521 32.3677 27.9624 33.1742 28.6562 33.197C29.3606 33.2202 35.9893 32.201 36.1411 32.0462C36.2263 31.9593 35.0684 32.0157 33.7808 32.1611ZM37.9549 32.9468C37.914 32.9886 37.8804 33.1135 37.8804 33.2245C37.8804 33.4438 38.1465 33.5 38.2644 33.3056C38.3498 33.1646 38.065 32.8345 37.9549 32.9468ZM48.7299 33.1283C48.7705 33.2368 48.8308 33.2979 48.864 33.264C48.8972 33.2302 48.8641 33.1414 48.7903 33.0667C48.6837 32.9589 48.6714 32.9716 48.7299 33.1283ZM49.5407 34.1502C49.5458 34.2784 49.5714 34.3045 49.6058 34.2168C49.637 34.1374 49.6331 34.0424 49.5973 34.0059C49.5615 33.9694 49.536 34.0343 49.5407 34.1502ZM46.6192 34.1802C46.6192 34.2447 46.5161 34.3955 46.39 34.5153L46.1607 34.7331L46.4169 35.0636C46.7003 35.429 46.835 35.4882 46.835 35.2474C46.835 35.16 46.9335 35.0182 47.0538 34.9323C47.2697 34.7782 47.2681 34.7712 46.9459 34.4194C46.7663 34.2233 46.6192 34.1157 46.6192 34.1802ZM42.5195 34.8561C42.2517 35.1292 42.2466 35.3193 42.5011 35.554C42.868 35.8926 43.3826 35.682 43.3826 35.1934C43.3826 35.0451 42.9867 34.6361 42.8432 34.6361C42.7839 34.6361 42.6382 34.7351 42.5195 34.8561ZM73.8604 35.5468C73.6983 35.8944 73.5575 36.0341 73.294 36.1087C73.1011 36.1632 72.944 36.2379 72.9445 36.2746C72.9451 36.3112 73.1427 36.4256 73.3836 36.5288C73.688 36.6591 73.8595 36.8185 73.9456 37.0513C74.102 37.4737 74.177 37.472 74.3515 37.0421C74.4444 36.8135 74.6358 36.6323 74.9224 36.5015L75.3535 36.3047L74.9702 36.1413C74.6945 36.0239 74.532 35.8514 74.3917 35.5271C74.2843 35.2791 74.1694 35.0779 74.1364 35.0801C74.1033 35.0823 73.9791 35.2923 73.8604 35.5468ZM22.7106 35.673C22.6124 35.9338 22.7513 36.1971 22.9649 36.1552C23.0843 36.1318 23.154 36.0178 23.154 35.8461C23.154 35.5325 22.8135 35.3996 22.7106 35.673ZM7.48354 36.4695C7.30283 36.5432 7.3121 36.8882 7.49907 37.0464C7.61548 37.1449 7.69046 37.1319 7.83071 36.9889C7.9605 36.8566 7.97647 36.7818 7.88681 36.7253C7.81809 36.682 7.76954 36.6038 7.77914 36.5515C7.80051 36.4344 7.66317 36.3962 7.48354 36.4695ZM47.806 36.9241C47.806 37.2211 48.0271 37.4084 48.2025 37.26C48.4532 37.048 48.3767 36.7261 48.0757 36.7261C47.8878 36.7261 47.806 36.7863 47.806 36.9241ZM1.4869 37.8995C1.35485 38.034 1.41289 38.3821 1.57818 38.4468C1.83958 38.5491 2.07866 38.2828 1.94833 38.0345C1.83861 37.8257 1.62155 37.7621 1.4869 37.8995ZM1.56458 38.174C1.59813 38.3484 1.84649 38.432 1.84649 38.2687C1.84649 38.1996 1.80204 38.1711 1.74777 38.2053C1.69351 38.2395 1.62435 38.2164 1.59404 38.154C1.56383 38.0916 1.55056 38.1007 1.56458 38.174ZM25.4413 38.2256C25.3105 38.359 25.3589 38.6734 25.5329 38.8207C25.7765 39.0267 26.1177 38.6801 25.9456 38.4015C25.817 38.1933 25.5607 38.1038 25.4413 38.2256ZM35.8991 38.2809C34.1315 38.5124 30.7471 39.6816 29.0338 40.6526C28.8261 40.7703 28.207 41.107 27.6582 41.4009C27.1094 41.6947 26.6603 41.9675 26.6603 42.0071C26.6603 42.0467 27.255 42.3157 27.9819 42.6049C29.6799 43.2806 31.6762 44.1436 33.7808 45.1115C35.7568 46.0203 41.5774 48.9424 42.7388 49.6087L43.5515 50.075L44.6268 49.445C47.0472 48.0271 49.6242 46.8744 51.4205 46.4059C52.3989 46.1509 54.553 46.0795 55.3551 46.2756C55.6205 46.3406 55.8504 46.3808 55.8659 46.3649C55.8814 46.349 55.5914 46.1115 55.2215 45.8369C54.0766 44.9874 51.7242 43.652 47.1586 41.2599C43.3004 39.2385 41.7798 38.6145 39.9901 38.3186C38.9311 38.1434 37.0794 38.1264 35.8991 38.2809ZM45.8834 38.8436C45.9024 38.9797 45.9908 39.0911 46.0798 39.0911C46.1688 39.0911 46.2571 38.9797 46.2761 38.8436C46.3026 38.6531 46.2574 38.5961 46.0798 38.5961C45.9022 38.5961 45.857 38.6531 45.8834 38.8436ZM4.55885 39.3419C4.49164 39.6611 4.35624 40.0475 4.25796 40.2005C4.06776 40.4964 3.38009 40.9061 3.07348 40.9061C2.7906 40.9061 2.9821 41.0369 3.54494 41.228C3.9466 41.3644 4.10584 41.4942 4.29723 41.8411C4.43079 42.0831 4.54094 42.3925 4.54191 42.5286C4.54472 42.9228 4.72823 42.8151 4.8099 42.3714C4.90128 41.8747 5.47535 41.2606 5.93602 41.1667C6.3695 41.0782 6.35774 40.9826 5.89243 40.8112C5.40155 40.6302 5.01855 40.1064 4.83116 39.36L4.68087 38.7613L4.55885 39.3419ZM22.6914 39.3868C22.5144 39.5672 22.527 39.7506 22.7278 39.9207C22.9671 40.1231 23.313 39.7805 23.1445 39.5081C22.9929 39.2631 22.8502 39.2248 22.6914 39.3868ZM70.7857 41.9725C68.316 42.2421 65.4715 43.3062 63.8055 44.5836C62.2569 45.7709 60.8662 47.8107 60.6882 49.156L60.6227 49.651L61.1011 48.812C61.4872 48.1346 62.1769 47.1507 62.4791 46.8461C62.5091 46.8158 62.6693 46.6055 62.8352 46.3786C63.0011 46.1517 63.1846 45.9661 63.2429 45.9661C63.3794 45.9661 63.2227 46.2591 62.8897 46.6261C62.6279 46.9148 62.047 47.6864 62.0467 47.7462C62.0466 47.7653 62.5228 47.3061 63.1049 46.7254C65.4001 44.4362 67.4805 43.5662 71.487 43.2201C73.1217 43.079 73.2671 43.0794 73.2671 43.2257C73.2671 43.3033 73.1057 43.3228 72.8086 43.2811C72.4834 43.2355 72.4128 43.2464 72.5658 43.3187C72.6845 43.3748 73.3521 43.4241 74.0492 43.4284C75.2201 43.4355 75.3169 43.4203 75.3169 43.2295C75.3169 42.9209 75.0846 42.7798 74.3842 42.6628C74.0368 42.6048 73.7344 42.5571 73.7124 42.5567C73.6903 42.5564 73.7302 42.4848 73.8012 42.3976C73.8721 42.3104 74.0564 42.2239 74.2106 42.2051C74.3649 42.1864 74.511 42.1093 74.5354 42.0336C74.5697 41.927 74.1958 41.9 72.8715 41.9137C71.932 41.9233 70.9934 41.9499 70.7857 41.9725ZM25.1475 43.7154C24.9006 44.1715 24.7233 44.6106 24.7536 44.6913C24.7839 44.7718 24.9428 44.872 25.1066 44.9139C25.4099 44.9916 28.2694 46.2639 30.098 47.1349C30.6535 47.3996 31.1223 47.616 31.1398 47.616C31.1573 47.616 31.6494 47.8422 32.2335 48.1185C32.8175 48.395 33.7808 48.8502 34.3741 49.1303C35.8715 49.8369 40.7974 52.3873 41.6984 52.9222C42.538 53.4208 42.731 53.4128 43.6206 52.8427C45.7549 51.4749 48.7449 49.9688 50.6107 49.3217C52.4647 48.6788 53.8211 48.5073 55.04 48.7619C56.0701 48.9771 57.6899 49.8168 58.3464 50.476C58.836 50.9677 58.8388 50.9688 58.7625 50.641C58.5049 49.5348 57.633 48.4558 56.5447 47.8968C55.5754 47.3988 54.8376 47.2383 53.5779 47.2515C51.6221 47.2719 49.06 48.1535 45.9827 49.865C43.6146 51.1821 43.7313 51.0871 43.2056 52.126C42.9455 52.6403 42.7571 52.9373 42.787 52.786C42.817 52.6348 42.8892 52.2883 42.9475 52.016C43.1436 51.1019 43.1306 51.0743 42.2768 50.5871C41.277 50.0165 35.7295 47.1831 34.1044 46.413C31.2621 45.066 26.1206 42.8861 25.7864 42.8861C25.6617 42.8861 25.4425 43.1705 25.1475 43.7154ZM7.8551 43.8761C7.82381 43.9668 7.76609 44.1896 7.72693 44.3711C7.60814 44.9201 7.18771 45.3738 6.59725 45.5903C6.29852 45.6999 6.05405 45.819 6.05405 45.855C6.05405 45.8909 6.26032 45.9778 6.51256 46.0479C7.15254 46.2259 7.52745 46.6273 7.73567 47.3577L7.91163 47.975L8.09913 47.4102C8.20227 47.0997 8.3791 46.7414 8.49195 46.6141C8.73674 46.3382 9.42203 45.9661 9.68549 45.9661C9.95585 45.9661 9.74094 45.7963 9.28146 45.6468C8.75249 45.4747 8.36043 45.0251 8.11672 44.311C7.99589 43.9571 7.88854 43.7787 7.8551 43.8761ZM70.5699 44.28C67.6164 44.5831 65.0081 45.7925 63.5304 47.544C63.2486 47.8781 63.0179 48.1818 63.0179 48.2188C63.0179 48.256 63.2 48.1431 63.4225 47.9677C65.0054 46.7209 65.9854 46.0712 65.3167 46.712C65.1274 46.8935 64.8234 47.1502 64.6412 47.2824C64.459 47.4146 64.3377 47.5686 64.3715 47.6244C64.4054 47.6803 64.3736 47.726 64.3009 47.726C64.2282 47.726 64.194 47.7519 64.2249 47.7834C64.2559 47.8149 64.3974 47.7934 64.5396 47.7354C64.6817 47.6774 64.7298 47.6268 64.6464 47.623C64.5301 47.6177 64.5409 47.5641 64.6925 47.3934C64.8012 47.2709 64.9423 47.1886 65.0059 47.2105C65.0696 47.2325 65.186 47.1718 65.2645 47.0757C65.3901 46.9222 65.401 46.9315 65.3544 47.1531C65.2899 47.4597 65.3404 47.4483 66.7821 46.8279C67.9183 46.3391 71.0348 45.4917 72.35 45.3141C72.8247 45.2501 73.9458 45.1848 74.8413 45.1693L76.4695 45.1411L76.2665 44.7414C76.12 44.453 75.9709 44.3229 75.7307 44.2739C75.3914 44.2047 71.256 44.2096 70.5699 44.28ZM23.7462 45.5284C23.682 45.6506 23.6635 45.8068 23.7051 45.8753C23.75 45.9492 23.7327 45.9698 23.6629 45.9258C23.598 45.885 23.4679 45.964 23.3738 46.1012C22.8959 46.7984 22.3243 47.7417 22.3593 47.7757C22.551 47.9629 36.4711 54.9169 36.619 54.8994C36.7264 54.8867 36.79 54.9161 36.7607 54.9646C36.6729 55.1093 38.9251 56.1961 39.3112 56.1954C39.6849 56.1946 39.6964 56.1893 41.171 55.3267C43.9961 53.6739 49.6605 51.2486 51.7438 50.7995C52.2838 50.6832 52.3463 50.6475 52.1214 50.5846C51.8935 50.5209 51.9355 50.4954 52.3911 50.4203C53.5817 50.2239 55.7923 50.3918 56.0053 50.6947C56.035 50.737 56.2292 50.803 56.4368 50.8413L56.8144 50.9113L56.4908 50.6397C56.3128 50.4903 55.8758 50.2671 55.5198 50.1437C53.2205 49.3464 50.6073 50.0552 44.5694 53.1134C43.095 53.8602 42.7244 54.006 42.4117 53.9624C42.204 53.9334 41.3544 53.5768 40.5236 53.1698C37.8995 51.8842 32.4499 49.248 32.0006 49.0468C31.7633 48.9406 31.205 48.6796 30.76 48.467C30.0067 48.1072 28.8805 47.5851 26.4985 46.4917C25.9644 46.2466 25.1687 45.8795 24.7301 45.676C24.2915 45.4725 23.9171 45.3061 23.8978 45.3061C23.8786 45.3061 23.8104 45.406 23.7462 45.5284ZM63.4931 45.6517C63.2884 45.8864 63.2885 45.8866 63.5304 45.7352C63.6638 45.6516 63.7731 45.5455 63.7731 45.4995C63.7731 45.367 63.713 45.3996 63.4931 45.6517ZM78.3377 46.2957C78.3377 46.4976 77.7519 46.6976 75.9103 47.1241C73.8859 47.5932 68.2744 49.0112 65.0863 49.8594C64.2954 50.0698 63.5418 50.3131 63.4116 50.4001C63.2814 50.4871 63.0356 50.8244 62.8652 51.1497C62.4532 51.9366 62.2048 52.2025 61.5614 52.5448C61.0816 52.8002 60.9089 52.8301 59.9971 52.8164L58.9722 52.8008L59.3795 53.0175C59.6582 53.1657 60.0088 53.2359 60.4894 53.2398C61.8799 53.2506 62.9202 52.5939 63.2847 51.475C63.3863 51.163 63.5743 50.8406 63.7022 50.7586C63.8302 50.6766 65.7312 50.1522 67.9267 49.5934C70.1222 49.0346 73.0351 48.2818 74.3999 47.9205C77.1624 47.1892 78.3588 46.9041 79.1199 46.7956C79.8912 46.6857 79.7412 46.4209 78.7833 46.2015C78.3901 46.1115 78.3377 46.1226 78.3377 46.2957ZM72.404 46.3671C71.1151 46.5436 68.8434 47.1253 67.5886 47.6002C66.5818 47.9814 65.4682 48.501 65.5279 48.5619C65.6021 48.6376 74.3813 46.4518 74.6696 46.2859C74.914 46.1452 73.7098 46.1884 72.404 46.3671ZM23.1609 46.7038C23.1024 46.8606 23.1147 46.8732 23.2213 46.7654C23.2951 46.6907 23.3282 46.602 23.295 46.5682C23.2618 46.5343 23.2015 46.5954 23.1609 46.7038ZM23.9343 46.8597C24.0076 46.9349 24.0946 46.9687 24.1278 46.9348C24.161 46.9009 24.1011 46.8395 23.9947 46.7981C23.841 46.7385 23.8286 46.751 23.9343 46.8597ZM13.1783 47.0588C13.0139 47.3721 13.0407 47.5581 13.2828 47.7815C13.4624 47.9471 13.5452 47.9595 13.7714 47.8544C14.1231 47.6911 14.2092 47.448 14.0337 47.1137C13.857 46.7769 13.3436 46.744 13.1783 47.0588ZM61.5757 48.3838C61.4178 48.6271 61.3079 48.826 61.3313 48.826C61.4141 48.826 61.9602 48.041 61.9117 47.9916C61.8848 47.9641 61.7335 48.1405 61.5757 48.3838ZM35.2343 48.1709C35.0088 48.5428 36.1094 49.2432 40.2401 51.3563C41.9645 52.2384 42.458 52.4483 42.5311 52.3308C42.7031 52.054 42.6296 51.8175 42.278 51.5159C41.8716 51.1671 35.7686 48.056 35.4909 48.056C35.3881 48.056 35.2726 48.1077 35.2343 48.1709ZM19.3328 48.4882C19.2232 48.559 20.4783 49.2487 23.7561 50.9191C26.2732 52.2019 28.9151 53.5612 29.6272 53.9398C30.3392 54.3184 32.3297 55.358 34.0505 56.2501C35.7713 57.1421 37.2385 57.9206 37.3111 57.98C37.6155 58.2291 38.0528 58.1375 41.8183 57.0362C48.9973 54.9365 52.8246 53.845 56.1671 52.944C56.9979 52.7201 57.7702 52.488 57.8836 52.4282C58.0738 52.3279 58.0755 52.3114 57.9065 52.2149C57.6899 52.0914 57.6036 52.1077 55.0883 52.7471C52.6005 53.3795 49.318 54.2979 44.8391 55.6143C41.3985 56.6257 38.3812 57.4898 37.9335 57.592C37.7969 57.6231 36.48 56.9922 34.3733 55.8861C26.8269 51.9245 19.9042 48.3865 19.7016 48.3879C19.583 48.3887 19.417 48.4339 19.3328 48.4882ZM61.071 49.1655C61.0047 49.2917 60.9709 49.4156 60.9958 49.4409C61.0206 49.4662 61.0963 49.3631 61.164 49.2115C61.3126 48.8788 61.2403 48.843 61.071 49.1655ZM51.528 51.9752C50.682 52.1559 48.0161 53.0717 46.2956 53.7727C45.6725 54.0266 44.8808 54.3347 44.5364 54.4574C44.1919 54.58 43.926 54.6967 43.9457 54.7168C43.9925 54.7645 45.4885 54.3368 50.7189 52.7804C51.5199 52.542 52.6123 52.2267 53.1463 52.0796L54.1173 51.8122L53.2003 51.8131C52.6959 51.8135 51.9434 51.8866 51.528 51.9752ZM70.6778 52.2645C70.6778 52.67 70.3025 53.6256 70.037 53.8964C69.8661 54.0706 69.4694 54.2803 69.108 54.3874L68.4773 54.5743L69.1051 54.7724C69.4505 54.8813 69.8706 55.1048 70.0388 55.269C70.3373 55.5607 70.668 56.3374 70.6876 56.7931C70.693 56.9185 70.784 56.7405 70.8897 56.3976C71.2136 55.3474 71.3977 55.1648 72.6177 54.6857C72.8706 54.5864 72.8544 54.5701 72.3261 54.3911C71.4996 54.1113 70.8969 53.2881 70.8942 52.435C70.8939 52.3327 70.845 52.2184 70.7857 52.181C70.7264 52.1436 70.6778 52.1812 70.6778 52.2645ZM17.454 52.7494C17.3155 52.8906 17.3837 53.3131 17.5559 53.3805C17.6772 53.4279 17.7119 53.4009 17.6706 53.2914C17.6381 53.2049 17.6788 53.1079 17.761 53.0758C17.8587 53.0375 17.8897 53.0725 17.8505 53.1766C17.8175 53.2643 17.8387 53.336 17.8973 53.336C18.0228 53.336 18.122 53.0111 18.0568 52.8135C18.0092 52.6693 17.5776 52.6233 17.454 52.7494ZM60.0827 59.6335C60.0653 62.0081 60.0688 64.0142 60.0907 64.0916C60.1125 64.1689 60.2217 64.282 60.3335 64.3429C60.5308 64.4506 60.5365 64.3244 60.5365 59.8848C60.5365 55.4236 60.5316 55.316 60.3255 55.316C60.1202 55.316 60.1136 55.4327 60.0827 59.6335ZM65.2877 55.7768C65.0179 56.0722 65.0031 56.5429 65.2565 56.7741C65.9687 57.4233 67.0349 56.4417 66.3624 55.756C66.0752 55.4632 65.5652 55.4731 65.2877 55.7768ZM21.982 57.6953C21.9444 57.9754 21.8116 58.3729 21.6868 58.5787C21.4509 58.9678 20.788 59.386 20.4072 59.386C20.0333 59.386 20.1639 59.5641 20.6456 59.711C20.8978 59.7879 21.2321 59.9436 21.3885 60.057C21.6956 60.2795 22.0212 60.9827 22.0212 61.4232C22.0212 61.8876 22.2084 61.7235 22.2868 61.1903C22.3858 60.5175 22.8697 59.9816 23.6088 59.7266L24.1693 59.5331L23.5946 59.3484C22.9129 59.1293 22.5263 58.647 22.319 57.757C22.2458 57.443 22.1554 57.186 22.1182 57.186C22.081 57.186 22.0197 57.4151 21.982 57.6953ZM27.1458 57.3895C25.5481 57.9191 25.3072 60.1584 26.7373 61.1856C28.2237 62.253 30.2727 60.9453 29.888 59.1748C29.7238 58.4192 29.3456 57.9144 28.6962 57.5845C28.147 57.3055 27.6048 57.2373 27.1458 57.3895ZM26.9918 58.6858C26.5795 59.2203 26.7579 59.9956 27.3841 60.3902C28.0873 60.8334 28.9259 60.3629 28.9259 59.5251C28.9259 59.2384 28.8351 59.0514 28.5591 58.77C28.25 58.4549 28.1155 58.396 27.7039 58.396C27.3047 58.396 27.1745 58.449 26.9918 58.6858ZM14.2059 59.329C14.0208 59.8231 13.8249 60.0001 13.2887 60.1571C13.0254 60.2342 13.0364 60.2486 13.5286 60.4696C13.9474 60.6576 14.0812 60.7894 14.2398 61.1702L14.4352 61.6392L14.5679 61.2294C14.7122 60.7832 15.1355 60.376 15.4547 60.376C15.7096 60.376 15.7218 60.1573 15.4671 60.1524C15.178 60.1467 14.8113 59.782 14.5914 59.2814L14.393 58.8295L14.2059 59.329ZM49.1148 59.294C49.0544 59.4553 48.8963 59.6224 48.7632 59.6654L48.5215 59.7436L48.7983 59.8916C48.9504 59.9728 49.1035 60.1151 49.1383 60.2077C49.2254 60.4391 49.3964 60.4189 49.4745 60.1679C49.5101 60.0534 49.6469 59.927 49.7784 59.8868L50.0176 59.8139L49.7749 59.6931C49.6414 59.6267 49.5321 59.5399 49.5321 59.5002C49.5321 59.4605 49.463 59.332 49.3784 59.2145C49.2295 59.0079 49.2211 59.0105 49.1148 59.294ZM56.9328 59.1488C56.8955 59.2104 56.9175 59.2939 56.9817 59.3344C57.1476 59.4389 57.2546 59.2958 57.1161 59.1546C57.0386 59.0756 56.9783 59.0737 56.9328 59.1488ZM65.6035 60.2155C65.5001 60.3426 65.4896 60.4457 65.5671 60.5711C65.7217 60.8209 65.854 60.8428 66.097 60.6589C66.2663 60.5308 66.2847 60.4593 66.189 60.3C66.0286 60.0328 65.7812 59.9972 65.6035 60.2155ZM32.5381 60.9986C32.3446 61.196 32.3342 61.3871 32.5077 61.564C32.8105 61.8728 33.3336 61.5192 33.1795 61.1098C33.0906 60.8735 32.7234 60.8098 32.5381 60.9986ZM45.8101 61.6096C45.6346 62.0706 45.5083 62.2229 45.135 62.4226L44.6759 62.6685L45.0524 62.7951C45.4632 62.9334 45.7864 63.3254 45.9146 63.841L45.9966 64.171L46.1459 63.7425C46.3355 63.1981 46.4608 63.0477 46.928 62.8032L47.3061 62.6055L46.9227 62.4199C46.5692 62.2488 46.3711 61.9703 46.1167 61.2867C46.0354 61.0681 46.0032 61.1021 45.8101 61.6096ZM36.0461 61.366C36.0349 61.7822 35.7972 62.1396 35.3469 62.4166L34.9411 62.6664L35.2513 62.83C35.6469 63.0385 35.8838 63.3167 36.0116 63.7229L36.113 64.0448L36.3764 63.5029C36.5556 63.1341 36.7535 62.9065 36.9957 62.7907L37.3516 62.6203L36.9957 62.4607C36.7378 62.345 36.5589 62.1343 36.3465 61.696C36.1134 61.215 36.0518 61.1473 36.0461 61.366ZM57.6236 61.3019C57.6236 61.3977 57.7004 61.476 57.7944 61.476C57.9849 61.476 57.9518 61.2392 57.7518 61.1712C57.6812 61.1472 57.6236 61.206 57.6236 61.3019ZM17.8694 61.7254C17.7692 62.2415 17.2928 62.7757 16.8527 62.8654C16.4383 62.95 16.4234 63.079 16.8186 63.1595C17.3065 63.2591 17.6638 63.6253 17.8169 64.1827L17.9583 64.6979L18.0938 64.2302C18.2663 63.6344 18.6136 63.258 19.0716 63.1704C19.4605 63.0961 19.5671 62.906 19.2199 62.906C18.9858 62.906 18.248 62.2967 18.2403 62.097C18.2376 62.0277 18.1712 61.8225 18.0926 61.641L17.9499 61.311L17.8694 61.7254ZM39.5025 62.0187C39.2442 62.5109 39.4784 62.906 40.0286 62.906C40.3664 62.906 40.6382 62.4143 40.4873 62.0765C40.3305 61.7257 39.6765 61.6874 39.5025 62.0187ZM56.1003 64.4219C56.0649 64.6406 56.0806 64.7432 56.1405 64.6821C56.1949 64.6267 56.2213 64.4642 56.1992 64.3211C56.1652 64.101 56.1501 64.1164 56.1003 64.4219ZM27.6852 64.336C27.6485 64.3965 27.6943 64.446 27.7867 64.446C27.8792 64.446 27.9549 64.3965 27.9549 64.336C27.9549 64.2755 27.9093 64.226 27.8534 64.226C27.7975 64.226 27.7219 64.2755 27.6852 64.336ZM27.5234 64.7244C27.5234 64.8171 27.5982 64.9222 27.6898 64.958C27.9338 65.0534 27.9465 64.9678 27.7211 64.7485C27.5538 64.5856 27.5234 64.5819 27.5234 64.7244ZM27.7931 64.666C27.7564 64.7265 27.7779 64.776 27.8407 64.776C27.9035 64.776 27.9549 64.7265 27.9549 64.666C27.9549 64.6055 27.9336 64.556 27.9073 64.556C27.8811 64.556 27.8298 64.6055 27.7931 64.666ZM42.0371 64.9777C41.8981 65.8165 41.2997 66.4482 40.4976 66.6027C40.1495 66.6698 40.1081 66.866 40.442 66.866C40.5384 66.866 40.818 66.965 41.0631 67.086C41.5722 67.3373 41.9321 67.896 42.0439 68.6089C42.1299 69.1572 42.1794 69.1371 42.3187 68.497C42.5175 67.5834 42.9031 67.1903 43.976 66.8077C44.1537 66.7443 44.1029 66.6989 43.6887 66.5508C43.4121 66.4519 43.0775 66.272 42.9453 66.151C42.6596 65.8895 42.3095 65.1514 42.3061 64.8035C42.3023 64.3992 42.1126 64.5221 42.0371 64.9777ZM48.8035 64.9029C48.5646 65.1464 48.6391 65.7409 48.933 65.9372C49.4519 66.2838 50.0966 65.6692 49.8171 65.0944C49.6704 64.7929 49.03 64.6719 48.8035 64.9029Z" fill="#41C0E1"/>
</svg>
